<svg xmlns="http://www.w3.org/2000/svg" width="182.041" height="35" viewBox="0 0 182.041 35">
  <g id="Group_1" data-name="Group 1" transform="translate(-172.959 -187)">
    <text id="EatWisdom" transform="translate(206 187)" font-size="25" font-family="LucidaGrande, Lucida Grande"><tspan x="0" y="24">EatWisdom</tspan></text>
    <path id="np_spoon_2463164_000000" d="M6.7,2.48H27.3A4.219,4.219,0,0,1,31.483,6.7V27.3a4.219,4.219,0,0,1-4.184,4.22H6.7a4.249,4.249,0,0,1-4.22-4.22V6.7A4.249,4.249,0,0,1,6.7,2.48Zm9.848,12.193-.4,13.707h1.912l-.649-13.707c3.9-.216,3.355-9.054-.36-9.054-3.751-.036-4.437,8.91-.5,9.054Zm.18,9.452L16.4,27.84h.613Zm-.5-10.75c-1.154-1.3-1.19-4.149-.721-5.808C14.1,8.9,14.421,13.375,16.224,13.375Z" transform="translate(170.478 184.52)" fill-rule="evenodd"/>
  </g>
</svg>
