<svg xmlns="http://www.w3.org/2000/svg" width="569" height="433.373" viewBox="0 0 569 433.373">
  <g id="Group_8" data-name="Group 8" transform="translate(-709 -352.627)">
    <text id="We_Think_Ideas" data-name="We Think Ideas" transform="translate(709 625)" fill="#fff" font-size="60" font-family="ProFontX"><tspan x="0" y="61">We Think Ideas</tspan></text>
    <g id="np_idea_2007903_FFFFFF" transform="translate(839.427 344.627)">
      <path id="Path_31" data-name="Path 31" d="M115.391,153.048H58.273V148.7c0-5.283-2.489-10.555-6.516-13.349-17.388-12.727-26.077-33.227-23.6-54.643,3.1-27.015,25.149-48.747,52.164-51.849a51.129,51.129,0,0,1,6.833-.306,59.363,59.363,0,0,1,36.021,106.5,17.342,17.342,0,0,0-7.139,13.972v1.55Zm-50.91-6.2H109.5a23.517,23.517,0,0,1,9.627-17.072A52.986,52.986,0,0,0,87.141,34.465a44.4,44.4,0,0,0-6.211.306,53.025,53.025,0,0,0-25.465,95.314,25.006,25.006,0,0,1,9.016,16.766Z" transform="translate(33.63 36.886)" fill="#fff"/>
      <path id="Path_32" data-name="Path 32" d="M46.921,76.555a7.479,7.479,0,0,0-7.139,9.627c3.417,10.555,7.139,18.01,11.177,18.01H80.147c4.039,0,8.077-7.455,11.177-18.01a7.479,7.479,0,0,0-7.139-9.627Z" transform="translate(54.596 123.009)" fill="#fff"/>
      <path id="Path_33" data-name="Path 33" d="M82.336,109.283H53.149c-5.589,0-9.933-6.211-14.277-20.183a10.135,10.135,0,0,1,1.55-9.311A9.9,9.9,0,0,1,48.8,75.446H86.682a9.9,9.9,0,0,1,8.383,4.344,11.068,11.068,0,0,1,1.55,9.311c-4.333,13.972-8.689,20.183-14.277,20.183ZM48.8,81.657a3.9,3.9,0,0,0-3.417,1.867,4.129,4.129,0,0,0-.622,3.722c4.966,15.216,8.383,15.838,8.383,15.838H82.335s3.417-.306,8.383-15.838a3.978,3.978,0,0,0-.622-3.722,4.281,4.281,0,0,0-3.417-1.867Z" transform="translate(52.714 121.018)" fill="#fff"/>
      <path id="Path_34" data-name="Path 34" d="M50.666,45.253a3.109,3.109,0,0,1-3.1-3.1L47.555,11.1a3.109,3.109,0,0,1,3.1-3.1,2.928,2.928,0,0,1,3.1,3.1V42.461a3.266,3.266,0,0,1-3.089,2.794Z" transform="translate(69.18 0)" fill="#fff"/>
      <path id="Path_35" data-name="Path 35" d="M70.1,47.562a3.339,3.339,0,0,1-2.172-.928,2.994,2.994,0,0,1,0-4.344L90.285,19.936A3.072,3.072,0,0,1,94.63,24.28L72.286,46.634a2.861,2.861,0,0,1-2.183.928Z" transform="translate(104.067 19.741)" fill="#fff"/>
      <path id="Path_36" data-name="Path 36" d="M109.8,52.536H78.436a3.109,3.109,0,0,1-3.1-3.1,2.928,2.928,0,0,1,3.1-3.1H109.8a3.1,3.1,0,1,1,0,6.2Z" transform="translate(119.028 68.787)" fill="#fff"/>
      <path id="Path_37" data-name="Path 37" d="M43.776,53.09H12.1A3.109,3.109,0,0,1,9,49.99a2.928,2.928,0,0,1,3.1-3.1H43.46a3.109,3.109,0,0,1,3.1,3.1,2.848,2.848,0,0,1-2.783,3.1Z" transform="translate(0 69.781)" fill="#fff"/>
      <path id="Path_38" data-name="Path 38" d="M45.572,48.007a3.339,3.339,0,0,1-2.172-.928L21.045,24.725a3.072,3.072,0,0,1,4.344-4.344L47.744,42.724a2.994,2.994,0,0,1,0,4.344,2.825,2.825,0,0,1-2.172.939Z" transform="translate(19.939 20.54)" fill="#fff"/>
      <path id="Path_39" data-name="Path 39" d="M78.507,29.894c-25.455,2.794-46.26,23.588-49.359,49.054A56.013,56.013,0,0,0,51.5,130.8a19.708,19.708,0,0,1,7.761,15.838v1.55h50.921v-1.55a20.6,20.6,0,0,1,8.383-16.46,56.469,56.469,0,0,0,22.355-44.709c.306-32.909-28.566-59.3-62.414-55.571Zm4.039,18.938A40.455,40.455,0,0,0,55.224,64.353a39.773,39.773,0,0,0-8.077,30.433A3.083,3.083,0,0,1,44.659,98.2h-.306a3.336,3.336,0,0,1-3.1-2.489A46.677,46.677,0,0,1,81.924,43.245a3.083,3.083,0,0,1,3.417,2.489,3.609,3.609,0,0,1-2.794,3.1Z" transform="translate(35.434 38.653)" fill="#fff"/>
    </g>
  </g>
</svg>
