<svg xmlns="http://www.w3.org/2000/svg" width="574.416" height="354.224" viewBox="0 0 574.416 354.224">
  <g id="Group_5" data-name="Group 5" transform="translate(-672.792 -362.888)">
    <g id="Group_3" data-name="Group 3">
      <g id="Group_1" data-name="Group 1">
        <path id="Path_1" data-name="Path 1" d="M672.792,669.108v-58.8h45.571v7.956h-37.01v16.516h30.7v7.955h-30.7v18.418h37.01v7.956Z" fill="#212121"/>
        <path id="Path_2" data-name="Path 2" d="M751.912,610.307h10.376l23.348,58.8h-9.08l-5.188-12.971H742.054l-5.361,12.971h-9.166Zm-7.523,39h24.644L757.1,619.3Z" fill="#212121"/>
        <path id="Path_3" data-name="Path 3" d="M817.629,618.263v50.845h-8.994V618.263h-21.1v-7.956H837.69v7.956Z" fill="#212121"/>
        <path id="Path_4" data-name="Path 4" d="M890.09,643.945l-10.636,25.163H866.31l-22.741-58.8h13.057l17.294,45.225,10.9-25.942-7.263-19.283H890.7l15.737,43.236,16.949-43.236h13.23l-23.434,58.8H900.034Z" fill="#212121"/>
        <path id="Path_5" data-name="Path 5" d="M948.368,610.307h12.106v58.8H948.368Z" fill="#212121"/>
        <path id="Path_6" data-name="Path 6" d="M989.7,643.08c-8.907-2.335-13.49-7.783-13.49-15.738,0-9.771,7.35-17.813,23.521-17.813,8.474,0,16.6,2.248,21.1,4.669l-3.459,11.328c-4.324-2.767-11.674-4.929-18.073-4.929-7.436,0-10.549,2.335-10.549,5.708,0,3.2,2.161,4.5,6.4,5.707l10.9,3.112c10.636,3.027,15.824,7.869,15.824,16.257,0,11.069-9.771,18.591-23.952,18.591a46.713,46.713,0,0,1-20.754-5.1l2.854-11.5a34.994,34.994,0,0,0,18.159,5.534c7.091,0,11.068-2.681,11.068-6.572,0-3.2-3.112-4.756-8.387-6.226Z" fill="#212121"/>
        <path id="Path_7" data-name="Path 7" d="M1037.432,610.307h25.336c17.381.086,30.352,10.377,30.352,29.487,0,18.937-12.971,29.314-30.352,29.314h-25.336Zm12.107,10.55v37.7h12.711c10.808,0,18.332-6.658,18.332-18.764,0-12.279-7.524-18.937-18.332-18.937Z" fill="#212121"/>
        <path id="Path_8" data-name="Path 8" d="M1135.488,609.442c17.381,0,30.352,12.971,30.352,30.352,0,17.208-12.971,30.178-30.352,30.178-17.208,0-30.179-12.97-30.179-30.178C1105.309,622.413,1118.28,609.442,1135.488,609.442Zm.087,49.2c10.809,0,18.332-8.215,18.332-18.851,0-10.809-7.523-18.851-18.332-18.851-10.637,0-18.332,8.042-18.332,18.851C1117.243,650.43,1124.938,658.645,1135.575,658.645Z" fill="#212121"/>
        <path id="Path_9" data-name="Path 9" d="M1235.1,629.417l-19.715,23.694h-2.162l-19.629-23.694v39.691h-12.106v-58.8h10.9l21.963,26.2,21.964-26.2h10.9v58.8H1235.1Z" fill="#212121"/>
      </g>
      <g id="Group_2" data-name="Group 2">
        <path id="Path_10" data-name="Path 10" d="M719.873,701.189v15.656H717.1V701.189h-6.5v-2.45H726.05v2.45Z" fill="#212121"/>
        <path id="Path_11" data-name="Path 11" d="M752.9,708.937H741.686v7.908h-2.77V698.739h2.77v7.775H752.9v-7.775h2.769v18.106H752.9Z" fill="#212121"/>
        <path id="Path_12" data-name="Path 12" d="M770.635,698.739H773.4v18.106h-2.769Z" fill="#212121"/>
        <path id="Path_13" data-name="Path 13" d="M791.114,703.159v13.686h-2.769V698.739h2.423l11.5,13.739V698.739h2.769v18.106h-2.423Z" fill="#212121"/>
        <path id="Path_14" data-name="Path 14" d="M820.01,698.739h2.769v7.908h4.154l5.458-7.908h2.876v.426l-6.231,8.786c1.438,1.572,3.036,6.737,5.991,6.737a5.224,5.224,0,0,0,2.183-.506l.32,2.237a7.3,7.3,0,0,1-3.035.693c-4.474,0-6.2-6.391-7.855-8.042h-3.861v7.775H820.01Z" fill="#212121"/>
        <path id="Path_15" data-name="Path 15" d="M877.746,708.085l-3.781,8.76h-2.982l-7.189-18.106h2.956l5.937,14.991,3.861-8.92-2.37-6.071h2.982l5.592,14.565,6.018-14.565h3.008L884.3,716.845h-3.008Z" fill="#212121"/>
        <path id="Path_16" data-name="Path 16" d="M904.354,698.739h2.769v18.106h-2.769Z" fill="#212121"/>
        <path id="Path_17" data-name="Path 17" d="M929.2,701.189v15.656h-2.769V701.189h-6.5v-2.45h15.443v2.45Z" fill="#212121"/>
        <path id="Path_18" data-name="Path 18" d="M962.222,708.937H951.013v7.908h-2.77V698.739h2.77v7.775h11.209v-7.775h2.769v18.106h-2.769Z" fill="#212121"/>
        <path id="Path_19" data-name="Path 19" d="M1012.929,703.132l-6.87,8.255h-.532l-6.817-8.255v13.713h-2.769V698.739h2.5l7.375,8.867,7.349-8.867h2.53v18.106h-2.769Z" fill="#212121"/>
        <path id="Path_20" data-name="Path 20" d="M1035.754,698.739h3.2l7.189,18.106h-2.8l-1.6-3.994h-9.027l-1.651,3.994h-2.822Zm-2.316,12.008h7.589l-3.675-9.239Z" fill="#212121"/>
        <path id="Path_21" data-name="Path 21" d="M1074.129,714.182a11.245,11.245,0,0,1-7.428,2.93c-5.352,0-9.266-3.462-9.266-9.293,0-5.885,3.914-9.346,9.266-9.346,4.632,0,7.3,2.609,7.4,6.843l-2.556.532c-.08-2.981-1.7-4.793-4.9-4.793-3.755,0-6.338,2.477-6.338,6.764,0,4.233,2.583,6.71,6.444,6.71a9.247,9.247,0,0,0,6.018-2.423Z" fill="#212121"/>
        <path id="Path_22" data-name="Path 22" d="M1101.8,708.937h-11.21v7.908h-2.769V698.739h2.769v7.775h11.21v-7.775h2.769v18.106H1101.8Z" fill="#212121"/>
        <path id="Path_23" data-name="Path 23" d="M1119.54,698.739h2.769v18.106h-2.769Z" fill="#212121"/>
        <path id="Path_24" data-name="Path 24" d="M1140.019,703.159v13.686h-2.769V698.739h2.422l11.5,13.739V698.739h2.77v18.106h-2.423Z" fill="#212121"/>
        <path id="Path_25" data-name="Path 25" d="M1168.915,716.845V698.739h14.032v2.45h-11.4v5.086H1181v2.449h-9.453V714.4h11.4v2.449Z" fill="#212121"/>
        <path id="Path_26" data-name="Path 26" d="M1199.7,708.378c-2.636-.666-4.1-2.237-4.1-4.606,0-2.823,2.237-5.273,7.137-5.273a14.382,14.382,0,0,1,6.337,1.438l-.825,2.609a11.825,11.825,0,0,0-5.619-1.491c-2.9,0-4.18,1.146-4.18,2.5,0,1.226.879,1.864,2.449,2.264l3.595.959c3.195.878,4.9,2.236,4.9,4.792,0,3.355-2.955,5.539-7.242,5.539a13.746,13.746,0,0,1-6.258-1.572l.666-2.635a11.267,11.267,0,0,0,5.645,1.65c2.636,0,4.313-1.092,4.313-2.769,0-1.278-1.144-1.97-3.168-2.476Z" fill="#212121"/>
      </g>
    </g>
    <g id="Group_4" data-name="Group 4">
      <path id="Path_27" data-name="Path 27" d="M969.956,459.214H949.337a26.328,26.328,0,0,0-26.266,26.215A26.258,26.258,0,0,0,949.337,511.7h20.619a26.327,26.327,0,0,0,26.266-26.266A26.247,26.247,0,0,0,969.956,459.214Zm8.678,22.462a2.915,2.915,0,0,1-2.063.852H942.349a2.923,2.923,0,0,1-2.927-2.915,2.851,2.851,0,0,1,.864-2.063,2.927,2.927,0,0,1,2.063-.864h34.222a2.923,2.923,0,0,1,2.914,2.927A2.892,2.892,0,0,1,978.634,481.676Z" fill="#212121"/>
      <path id="Path_28" data-name="Path 28" d="M959.808,408.178c-33.333,0-60.347,28.239-60.347,63.1,0,34.829,27.014,63.055,60.347,63.055s60.333-28.226,60.333-63.055C1020.141,436.417,993.14,408.178,959.808,408.178Zm42.049,78.153A31.17,31.17,0,0,1,970.7,517.536H948.59a31.213,31.213,0,0,1-31.205-31.205v-1.8a31.169,31.169,0,0,1,31.205-31.153H970.7a31.125,31.125,0,0,1,31.153,31.153Z" fill="#212121"/>
      <path id="Path_29" data-name="Path 29" d="M982.836,557.488A2.041,2.041,0,0,1,984.765,561c-7.386,6.068-15.953,10.583-25.145,10.583-9.143,0-17.721-4.506-25.114-10.565a2.041,2.041,0,0,1,1.928-3.513,82.8,82.8,0,0,0,46.4-.016Z" fill="#212121"/>
      <path id="Path_30" data-name="Path 30" d="M990.244,533.88c3.939-2.1,7.573,3.171,4.321,6.232-9.505,8.949-21.677,14.321-34.971,14.321-13.261,0-25.419-5.372-34.92-14.32-3.25-3.061.385-8.335,4.324-6.231a64.841,64.841,0,0,0,61.246,0Z" fill="#212121"/>
      <rect id="Rectangle_1" data-name="Rectangle 1" width="7.068" height="24.829" rx="3.534" transform="translate(956.424 362.888)" fill="#212121"/>
      <rect id="Rectangle_2" data-name="Rectangle 2" width="7.068" height="24.829" rx="3.534" transform="translate(1030.831 391.577) rotate(45)" fill="#212121"/>
      <rect id="Rectangle_3" data-name="Rectangle 3" width="7.068" height="24.829" rx="3.534" transform="translate(884.171 396.575) rotate(-45)" fill="#212121"/>
    </g>
  </g>
</svg>
