<?xml version="1.0" encoding="UTF-8"?>
<svg width="100pt" height="100pt" version="1.1" viewBox="0 0 100 100" xmlns="http://www.w3.org/2000/svg">
 <g>
  <path d="m86.371 33.121c-1.0977 0.48438-1.5938 1.7617-1.1133 2.8594 2.3203 5.2695 3.5 10.883 3.5 16.691 0 22.844-18.586 41.43-41.43 41.43s-41.43-18.586-41.43-41.43c0-22.848 18.586-41.43 41.43-41.43 5.8047 0 11.426 1.1797 16.695 3.5039 1.1016 0.47656 2.375-0.011719 2.8633-1.1094 0.48047-1.0977-0.015625-2.3789-1.1094-2.8633-5.8242-2.5664-12.031-3.8672-18.445-3.8672-25.238-0.003906-45.77 20.527-45.77 45.766 0 25.234 20.531 45.766 45.766 45.766 25.238 0 45.77-20.531 45.77-45.766 0-6.4141-1.3008-12.617-3.8672-18.438-0.48828-1.0977-1.7656-1.5898-2.8594-1.1133z"/>
  <path d="m59.715 31.18c0.50781-1.0859 0.039062-2.3789-1.0469-2.8828-3.5664-1.6602-7.3789-2.5039-11.336-2.5039-14.82 0-26.875 12.055-26.875 26.875 0 14.82 12.055 26.871 26.875 26.871 14.82 0 26.875-12.055 26.875-26.871 0-3.9648-0.84766-7.7852-2.5117-11.352-0.50781-1.0898-1.7969-1.5586-2.8828-1.0508s-1.5547 1.7969-1.0508 2.8828c1.3984 2.9922 2.1016 6.1953 2.1016 9.5234 0 12.426-10.109 22.535-22.539 22.535-12.426 0-22.535-10.109-22.535-22.535 0-12.43 10.109-22.539 22.535-22.539 3.3203 0 6.5234 0.70703 9.5078 2.0938 1.0859 0.51172 2.3789 0.039063 2.8828-1.0469z"/>
  <path d="m47.895 45.523c1.1797 0.10937 2.2383-0.80469 2.3281-2 0.089844-1.1953-0.80469-2.2383-1.9961-2.3281-0.29297-0.023437-0.59375-0.035156-0.89844-0.035156-6.3438 0-11.508 5.1641-11.508 11.508s5.1641 11.508 11.508 11.508c6.3477 0 11.508-5.1641 11.508-11.508 0-0.30078-0.007813-0.60156-0.03125-0.89844-0.089844-1.1953-1.1328-2.0781-2.3281-2-1.1953 0.089844-2.0898 1.1328-2 2.3281 0.015626 0.1875 0.023438 0.37891 0.023438 0.57031 0 3.9531-3.2148 7.168-7.1719 7.168-3.9531 0-7.168-3.2148-7.168-7.168 0-4.1445 3.6797-7.4805 7.7344-7.1445z"/>
  <path d="m98.254 14.164c-0.36328-0.82031-1.1523-1.3672-2.082-1.2969l-9.4531 0.41406 0.41016-9.4531c0.039063-0.89453-0.47656-1.7188-1.293-2.082-0.81641-0.35938-1.7734-0.17969-2.4062 0.45312l-14.387 14.387c-0.49219 0.49219-0.71484 1.1836-0.60547 1.8711l1.3672 8.6758-23.539 23.539c-0.84766 0.84766-0.84766 2.2188 0 3.0664 0.42578 0.42188 0.97656 0.63281 1.5352 0.63281 0.55469 0 1.1094-0.21094 1.5352-0.63281l23.539-23.539 8.6719 1.3672c0.11328 0.019532 0.22656 0.027344 0.33594 0.027344 0.57031 0 1.125-0.22656 1.5352-0.63281l14.387-14.387c0.62891-0.64062 0.8125-1.5977 0.44922-2.4102zm-17.125 12.941-7.1133-1.1211-1.1211-7.1172 9.6641-9.6641-0.26953 6.2461c-0.023437 0.60938 0.20313 1.1953 0.63281 1.6289 0.42969 0.42969 1.0039 0.66016 1.6289 0.63281l6.2461-0.26953z"/>
 </g>
</svg>
